# xmcd CD database file
#
# Track frame offsets:
#	187
#	9017
#	25967
#	45870
#	75397
#	78727
#	107717
#	117047
#	138287
#	158880
#	182025
#	209220
#	228010
#	252465
#
# Disc length: 3506 seconds
#
# Revision: 4
# Processed by: cddbd v1.5.2PL0 Copyright (c) Steve Scherf et al.
# Submitted via: CDex 1.70beta2
#
DISCID=a60db00e
DTITLE=Erykah Badu - Baduizm
DYEAR=1997
DGENRE=R&B
TTITLE0=Rimshot (Intro)
TTITLE1=On and On
TTITLE2=Appletree
TTITLE3=Other Side of the Game
TTITLE4=Sometimes (Mix #9)
TTITLE5=Next Lifetime
TTITLE6=Afro (Freestyle Skit)
TTITLE7=Certainly
TTITLE8=4 Leaf Clover
TTITLE9=No Love
TTITLE10=Drama
TTITLE11=Sometimes...
TTITLE12=Certainly (Flipped It)
TTITLE13=Rimshot (Outro)
EXTD=YEAR: 1997
EXTT0=
EXTT1=
EXTT2=
EXTT3=
EXTT4=
EXTT5=
EXTT6=
EXTT7=
EXTT8=
EXTT9=
EXTT10=
EXTT11=
EXTT12=
EXTT13=
PLAYORDER=
